<mxfile host="app.diagrams.net" agent="Mozilla/5.0 (Macintosh; Intel Mac OS X 10_15_7) AppleWebKit/537.36 (KHTML, like Gecko) Chrome/140.0.0.0 Safari/537.36" version="28.2.5">
  <diagram name="Page-1" id="BQsDJucPVqRGzlALcZ2R">
    <mxGraphModel dx="1056" dy="1038" grid="1" gridSize="10" guides="1" tooltips="1" connect="1" arrows="1" fold="1" page="1" pageScale="1" pageWidth="850" pageHeight="1100" math="0" shadow="0">
      <root>
        <mxCell id="0" />
        <mxCell id="1" parent="0" />
        <mxCell id="1bkWPQ7dRQBSRgwhLoXd-5" style="edgeStyle=orthogonalEdgeStyle;rounded=0;orthogonalLoop=1;jettySize=auto;html=1;entryX=0.5;entryY=0;entryDx=0;entryDy=0;" edge="1" parent="1" source="1bkWPQ7dRQBSRgwhLoXd-1" target="1bkWPQ7dRQBSRgwhLoXd-2">
          <mxGeometry relative="1" as="geometry" />
        </mxCell>
        <mxCell id="1bkWPQ7dRQBSRgwhLoXd-1" value="Start" style="ellipse;whiteSpace=wrap;html=1;" vertex="1" parent="1">
          <mxGeometry x="365" y="10" width="120" height="80" as="geometry" />
        </mxCell>
        <mxCell id="1bkWPQ7dRQBSRgwhLoXd-6" style="edgeStyle=orthogonalEdgeStyle;rounded=0;orthogonalLoop=1;jettySize=auto;html=1;entryX=0.5;entryY=0;entryDx=0;entryDy=0;" edge="1" parent="1" source="1bkWPQ7dRQBSRgwhLoXd-2" target="1bkWPQ7dRQBSRgwhLoXd-3">
          <mxGeometry relative="1" as="geometry" />
        </mxCell>
        <mxCell id="1bkWPQ7dRQBSRgwhLoXd-2" value="Initialize Game (dispaly score=0, Laod questions)" style="rounded=0;whiteSpace=wrap;html=1;" vertex="1" parent="1">
          <mxGeometry x="348" y="150" width="155" height="90" as="geometry" />
        </mxCell>
        <mxCell id="1bkWPQ7dRQBSRgwhLoXd-10" style="edgeStyle=orthogonalEdgeStyle;rounded=0;orthogonalLoop=1;jettySize=auto;html=1;entryX=0.5;entryY=0;entryDx=0;entryDy=0;" edge="1" parent="1" source="1bkWPQ7dRQBSRgwhLoXd-3" target="1bkWPQ7dRQBSRgwhLoXd-8">
          <mxGeometry relative="1" as="geometry" />
        </mxCell>
        <mxCell id="1bkWPQ7dRQBSRgwhLoXd-3" value="Display game board" style="rounded=0;whiteSpace=wrap;html=1;" vertex="1" parent="1">
          <mxGeometry x="353" y="310" width="145" height="80" as="geometry" />
        </mxCell>
        <mxCell id="1bkWPQ7dRQBSRgwhLoXd-34" style="edgeStyle=orthogonalEdgeStyle;rounded=0;orthogonalLoop=1;jettySize=auto;html=1;" edge="1" parent="1" source="1bkWPQ7dRQBSRgwhLoXd-4" target="1bkWPQ7dRQBSRgwhLoXd-33">
          <mxGeometry relative="1" as="geometry" />
        </mxCell>
        <mxCell id="1bkWPQ7dRQBSRgwhLoXd-39" value="no" style="edgeLabel;html=1;align=center;verticalAlign=middle;resizable=0;points=[];" vertex="1" connectable="0" parent="1bkWPQ7dRQBSRgwhLoXd-34">
          <mxGeometry x="-0.0667" relative="1" as="geometry">
            <mxPoint as="offset" />
          </mxGeometry>
        </mxCell>
        <mxCell id="1bkWPQ7dRQBSRgwhLoXd-40" style="edgeStyle=orthogonalEdgeStyle;rounded=0;orthogonalLoop=1;jettySize=auto;html=1;" edge="1" parent="1" source="1bkWPQ7dRQBSRgwhLoXd-4">
          <mxGeometry relative="1" as="geometry">
            <mxPoint x="50" y="500" as="targetPoint" />
          </mxGeometry>
        </mxCell>
        <mxCell id="1bkWPQ7dRQBSRgwhLoXd-4" value="Are any questions remaining" style="rhombus;whiteSpace=wrap;html=1;" vertex="1" parent="1">
          <mxGeometry x="348" y="1310" width="140" height="140" as="geometry" />
        </mxCell>
        <mxCell id="1bkWPQ7dRQBSRgwhLoXd-11" style="edgeStyle=orthogonalEdgeStyle;rounded=0;orthogonalLoop=1;jettySize=auto;html=1;" edge="1" parent="1" source="1bkWPQ7dRQBSRgwhLoXd-8" target="1bkWPQ7dRQBSRgwhLoXd-9">
          <mxGeometry relative="1" as="geometry" />
        </mxCell>
        <mxCell id="1bkWPQ7dRQBSRgwhLoXd-8" value="Player selects question" style="rounded=0;whiteSpace=wrap;html=1;" vertex="1" parent="1">
          <mxGeometry x="353" y="450" width="145" height="90" as="geometry" />
        </mxCell>
        <mxCell id="1bkWPQ7dRQBSRgwhLoXd-15" style="edgeStyle=orthogonalEdgeStyle;rounded=0;orthogonalLoop=1;jettySize=auto;html=1;" edge="1" parent="1" source="1bkWPQ7dRQBSRgwhLoXd-9" target="1bkWPQ7dRQBSRgwhLoXd-13">
          <mxGeometry relative="1" as="geometry" />
        </mxCell>
        <mxCell id="1bkWPQ7dRQBSRgwhLoXd-9" value="Player input answer" style="rounded=0;whiteSpace=wrap;html=1;" vertex="1" parent="1">
          <mxGeometry x="365" y="600" width="120" height="60" as="geometry" />
        </mxCell>
        <mxCell id="1bkWPQ7dRQBSRgwhLoXd-20" style="edgeStyle=orthogonalEdgeStyle;rounded=0;orthogonalLoop=1;jettySize=auto;html=1;entryX=0.5;entryY=0;entryDx=0;entryDy=0;" edge="1" parent="1" source="1bkWPQ7dRQBSRgwhLoXd-13" target="1bkWPQ7dRQBSRgwhLoXd-17">
          <mxGeometry relative="1" as="geometry" />
        </mxCell>
        <mxCell id="1bkWPQ7dRQBSRgwhLoXd-21" style="edgeStyle=orthogonalEdgeStyle;rounded=0;orthogonalLoop=1;jettySize=auto;html=1;entryX=0.5;entryY=0;entryDx=0;entryDy=0;" edge="1" parent="1" source="1bkWPQ7dRQBSRgwhLoXd-13" target="1bkWPQ7dRQBSRgwhLoXd-16">
          <mxGeometry relative="1" as="geometry" />
        </mxCell>
        <mxCell id="1bkWPQ7dRQBSRgwhLoXd-13" value="Is the answer Correct" style="rhombus;whiteSpace=wrap;html=1;" vertex="1" parent="1">
          <mxGeometry x="345" y="730" width="160" height="170" as="geometry" />
        </mxCell>
        <mxCell id="1bkWPQ7dRQBSRgwhLoXd-23" style="edgeStyle=orthogonalEdgeStyle;rounded=0;orthogonalLoop=1;jettySize=auto;html=1;entryX=0.5;entryY=0;entryDx=0;entryDy=0;" edge="1" parent="1" source="1bkWPQ7dRQBSRgwhLoXd-16" target="1bkWPQ7dRQBSRgwhLoXd-22">
          <mxGeometry relative="1" as="geometry" />
        </mxCell>
        <mxCell id="1bkWPQ7dRQBSRgwhLoXd-16" value="yes" style="rounded=0;whiteSpace=wrap;html=1;" vertex="1" parent="1">
          <mxGeometry x="160" y="960" width="120" height="60" as="geometry" />
        </mxCell>
        <mxCell id="1bkWPQ7dRQBSRgwhLoXd-17" value="no" style="rounded=0;whiteSpace=wrap;html=1;" vertex="1" parent="1">
          <mxGeometry x="570" y="960" width="120" height="60" as="geometry" />
        </mxCell>
        <mxCell id="1bkWPQ7dRQBSRgwhLoXd-28" style="edgeStyle=orthogonalEdgeStyle;rounded=0;orthogonalLoop=1;jettySize=auto;html=1;" edge="1" parent="1" source="1bkWPQ7dRQBSRgwhLoXd-22">
          <mxGeometry relative="1" as="geometry">
            <mxPoint x="420" y="1200" as="targetPoint" />
          </mxGeometry>
        </mxCell>
        <mxCell id="1bkWPQ7dRQBSRgwhLoXd-22" value="add points" style="rounded=0;whiteSpace=wrap;html=1;" vertex="1" parent="1">
          <mxGeometry x="160" y="1070" width="120" height="60" as="geometry" />
        </mxCell>
        <mxCell id="1bkWPQ7dRQBSRgwhLoXd-24" value="subtract points" style="rounded=0;whiteSpace=wrap;html=1;" vertex="1" parent="1">
          <mxGeometry x="570" y="1070" width="120" height="60" as="geometry" />
        </mxCell>
        <mxCell id="1bkWPQ7dRQBSRgwhLoXd-32" style="edgeStyle=orthogonalEdgeStyle;rounded=0;orthogonalLoop=1;jettySize=auto;html=1;" edge="1" parent="1" source="1bkWPQ7dRQBSRgwhLoXd-29" target="1bkWPQ7dRQBSRgwhLoXd-4">
          <mxGeometry relative="1" as="geometry" />
        </mxCell>
        <mxCell id="1bkWPQ7dRQBSRgwhLoXd-29" value="display game board" style="rounded=0;whiteSpace=wrap;html=1;" vertex="1" parent="1">
          <mxGeometry x="358" y="1200" width="120" height="60" as="geometry" />
        </mxCell>
        <mxCell id="1bkWPQ7dRQBSRgwhLoXd-31" style="edgeStyle=orthogonalEdgeStyle;rounded=0;orthogonalLoop=1;jettySize=auto;html=1;entryX=0.583;entryY=-0.067;entryDx=0;entryDy=0;entryPerimeter=0;" edge="1" parent="1" source="1bkWPQ7dRQBSRgwhLoXd-24" target="1bkWPQ7dRQBSRgwhLoXd-29">
          <mxGeometry relative="1" as="geometry" />
        </mxCell>
        <mxCell id="1bkWPQ7dRQBSRgwhLoXd-37" style="edgeStyle=orthogonalEdgeStyle;rounded=0;orthogonalLoop=1;jettySize=auto;html=1;entryX=0.5;entryY=0;entryDx=0;entryDy=0;" edge="1" parent="1" source="1bkWPQ7dRQBSRgwhLoXd-33" target="1bkWPQ7dRQBSRgwhLoXd-35">
          <mxGeometry relative="1" as="geometry" />
        </mxCell>
        <mxCell id="1bkWPQ7dRQBSRgwhLoXd-33" value="display final score" style="rounded=0;whiteSpace=wrap;html=1;" vertex="1" parent="1">
          <mxGeometry x="358" y="1510" width="120" height="60" as="geometry" />
        </mxCell>
        <mxCell id="1bkWPQ7dRQBSRgwhLoXd-35" value="end game" style="rounded=0;whiteSpace=wrap;html=1;" vertex="1" parent="1">
          <mxGeometry x="358" y="1610" width="120" height="60" as="geometry" />
        </mxCell>
        <mxCell id="1bkWPQ7dRQBSRgwhLoXd-36" value="end" style="ellipse;whiteSpace=wrap;html=1;" vertex="1" parent="1">
          <mxGeometry x="348" y="1740" width="120" height="80" as="geometry" />
        </mxCell>
        <mxCell id="1bkWPQ7dRQBSRgwhLoXd-38" style="edgeStyle=orthogonalEdgeStyle;rounded=0;orthogonalLoop=1;jettySize=auto;html=1;entryX=0.567;entryY=0.013;entryDx=0;entryDy=0;entryPerimeter=0;" edge="1" parent="1" source="1bkWPQ7dRQBSRgwhLoXd-35" target="1bkWPQ7dRQBSRgwhLoXd-36">
          <mxGeometry relative="1" as="geometry" />
        </mxCell>
        <mxCell id="1bkWPQ7dRQBSRgwhLoXd-44" style="edgeStyle=orthogonalEdgeStyle;rounded=0;orthogonalLoop=1;jettySize=auto;html=1;" edge="1" parent="1" source="1bkWPQ7dRQBSRgwhLoXd-41">
          <mxGeometry relative="1" as="geometry">
            <mxPoint x="350" y="503" as="targetPoint" />
          </mxGeometry>
        </mxCell>
        <mxCell id="1bkWPQ7dRQBSRgwhLoXd-41" value="yes" style="text;html=1;align=center;verticalAlign=middle;resizable=0;points=[];autosize=1;strokeColor=none;fillColor=none;" vertex="1" parent="1">
          <mxGeometry x="30" y="488" width="40" height="30" as="geometry" />
        </mxCell>
      </root>
    </mxGraphModel>
  </diagram>
</mxfile>
